{
	"patcher" : 	{
		"fileversion" : 1,
		"appversion" : 		{
			"major" : 9,
			"minor" : 0,
			"revision" : 6,
			"architecture" : "x64",
			"modernui" : 1
		}
,
		"classnamespace" : "box",
		"rect" : [ 819.0, 105.0, 1286.0, 941.0 ],
		"openinpresentation" : 1,
		"default_fontsize" : 10.0,
		"default_fontname" : "Arial Bold",
		"gridsize" : [ 8.0, 8.0 ],
		"boxanimatetime" : 500,
		"subpatcher_template" : "NEW M4L",
		"boxes" : [ 			{
				"box" : 				{
					"fontsize" : 15.0,
					"id" : "obj-204",
					"maxclass" : "live.comment",
					"numinlets" : 1,
					"numoutlets" : 0,
					"patching_rect" : [ 128.949999999999989, 171.930000000000007, 228.0, 24.0 ],
					"presentation" : 1,
					"presentation_rect" : [ 0.0, 1.192982196807861, 133.333332061767578, 24.0 ],
					"text" : "Extract Device",
					"textjustification" : 0
				}

			}
, 			{
				"box" : 				{
					"id" : "obj-202",
					"maxclass" : "newobj",
					"numinlets" : 4,
					"numoutlets" : 3,
					"outlettype" : [ "", "", "" ],
					"patcher" : 					{
						"fileversion" : 1,
						"appversion" : 						{
							"major" : 9,
							"minor" : 0,
							"revision" : 6,
							"architecture" : "x64",
							"modernui" : 1
						}
,
						"classnamespace" : "box",
						"rect" : [ 0.0, 0.0, 1000.0, 780.0 ],
						"gridsize" : [ 15.0, 15.0 ],
						"boxes" : [ 							{
								"box" : 								{
									"id" : "obj-194",
									"linecount" : 2,
									"maxclass" : "newobj",
									"numinlets" : 1,
									"numoutlets" : 1,
									"outlettype" : [ "bang" ],
									"patching_rect" : [ 105.263157367706299, 173.684209823608398, 53.0, 20.0 ],
									"text" : "loadbang"
								}

							}
, 							{
								"box" : 								{
									"id" : "obj-192",
									"linecount" : 2,
									"maxclass" : "newobj",
									"numinlets" : 3,
									"numoutlets" : 2,
									"outlettype" : [ "", "" ],
									"patcher" : 									{
										"fileversion" : 1,
										"appversion" : 										{
											"major" : 9,
											"minor" : 0,
											"revision" : 6,
											"architecture" : "x64",
											"modernui" : 1
										}
,
										"classnamespace" : "box",
										"rect" : [ 84.0, 131.0, 1000.0, 780.0 ],
										"gridsize" : [ 15.0, 15.0 ],
										"boxes" : [ 											{
												"box" : 												{
													"id" : "obj-186",
													"maxclass" : "newobj",
													"numinlets" : 2,
													"numoutlets" : 1,
													"outlettype" : [ "" ],
													"patcher" : 													{
														"fileversion" : 1,
														"appversion" : 														{
															"major" : 9,
															"minor" : 0,
															"revision" : 6,
															"architecture" : "x64",
															"modernui" : 1
														}
,
														"classnamespace" : "box",
														"rect" : [ 109.0, 156.0, 1000.0, 780.0 ],
														"gridsize" : [ 15.0, 15.0 ],
														"boxes" : [ 															{
																"box" : 																{
																	"id" : "obj-182",
																	"linecount" : 3,
																	"maxclass" : "newobj",
																	"numinlets" : 2,
																	"numoutlets" : 1,
																	"outlettype" : [ "" ],
																	"patcher" : 																	{
																		"fileversion" : 1,
																		"appversion" : 																		{
																			"major" : 9,
																			"minor" : 0,
																			"revision" : 6,
																			"architecture" : "x64",
																			"modernui" : 1
																		}
,
																		"classnamespace" : "box",
																		"rect" : [ 0.0, 0.0, 1000.0, 780.0 ],
																		"gridsize" : [ 15.0, 15.0 ],
																		"boxes" : [ 																			{
																				"box" : 																				{
																					"id" : "obj-113",
																					"linecount" : 2,
																					"maxclass" : "newobj",
																					"numinlets" : 2,
																					"numoutlets" : 2,
																					"outlettype" : [ "", "" ],
																					"patching_rect" : [ 135.087718486785889, 258.771928310394287, 54.0, 20.0 ],
																					"text" : "route text"
																				}

																			}
, 																			{
																				"box" : 																				{
																					"id" : "obj-112",
																					"linecount" : 2,
																					"maxclass" : "newobj",
																					"numinlets" : 2,
																					"numoutlets" : 1,
																					"outlettype" : [ "bang" ],
																					"patching_rect" : [ 68.4210524559021, 227.192981243133545, 42.0, 20.0 ],
																					"text" : "del 100"
																				}

																			}
, 																			{
																				"box" : 																				{
																					"id" : "obj-111",
																					"linecount" : 2,
																					"maxclass" : "message",
																					"numinlets" : 2,
																					"numoutlets" : 1,
																					"outlettype" : [ "" ],
																					"patching_rect" : [ 50.0, 322.807015419006348, 225.438594341278076, 20.0 ],
																					"text" : "set deviceName AudioEffectGroupDevice"
																				}

																			}
, 																			{
																				"box" : 																				{
																					"id" : "obj-101",
																					"linecount" : 2,
																					"maxclass" : "newobj",
																					"numinlets" : 1,
																					"numoutlets" : 1,
																					"outlettype" : [ "" ],
																					"patching_rect" : [ 134.210525512695312, 285.087717533111572, 126.0, 20.0 ],
																					"text" : "prepend set deviceName"
																				}

																			}
, 																			{
																				"box" : 																				{
																					"id" : "obj-100",
																					"linecount" : 2,
																					"maxclass" : "newobj",
																					"numinlets" : 2,
																					"numoutlets" : 1,
																					"outlettype" : [ "bang" ],
																					"patching_rect" : [ 81.578947067260742, 182.45613956451416, 42.0, 20.0 ],
																					"text" : "del 100"
																				}

																			}
, 																			{
																				"box" : 																				{
																					"blinkcolor" : [ 0.921569, 0.94902, 0.05098, 1.0 ],
																					"id" : "obj-43",
																					"maxclass" : "button",
																					"numinlets" : 1,
																					"numoutlets" : 1,
																					"outlettype" : [ "bang" ],
																					"parameter_enable" : 0,
																					"patching_rect" : [ 81.578947067260742, 100.0, 18.0, 18.0 ]
																				}

																			}
, 																			{
																				"box" : 																				{
																					"border" : 1.0,
																					"fontname" : "Arial",
																					"fontsize" : 10.0,
																					"id" : "obj-72",
																					"keymode" : 1,
																					"maxclass" : "textedit",
																					"numinlets" : 1,
																					"numoutlets" : 4,
																					"outlettype" : [ "", "int", "", "" ],
																					"parameter_enable" : 0,
																					"patching_rect" : [ 134.210525512695312, 227.192981243133545, 189.473682403564453, 20.157897472381592 ],
																					"prototypename" : "M4L.white",
																					"rounded" : 0.0,
																					"text" : "AudioEffectGroupDevice"
																				}

																			}
, 																			{
																				"box" : 																				{
																					"fontname" : "Arial Bold",
																					"fontsize" : 10.0,
																					"id" : "obj-74",
																					"maxclass" : "newobj",
																					"numinlets" : 2,
																					"numoutlets" : 4,
																					"outlettype" : [ "", "", "", "" ],
																					"patching_rect" : [ 134.210525512695312, 144.736841678619385, 171.0, 20.0 ],
																					"text" : "live.property class_name @get 1"
																				}

																			}
, 																			{
																				"box" : 																				{
																					"comment" : "",
																					"id" : "obj-179",
																					"index" : 1,
																					"maxclass" : "inlet",
																					"numinlets" : 0,
																					"numoutlets" : 1,
																					"outlettype" : [ "" ],
																					"patching_rect" : [ 81.578972277130106, 40.000009477874755, 30.0, 30.0 ]
																				}

																			}
, 																			{
																				"box" : 																				{
																					"comment" : "",
																					"id" : "obj-180",
																					"index" : 2,
																					"maxclass" : "inlet",
																					"numinlets" : 0,
																					"numoutlets" : 1,
																					"outlettype" : [ "" ],
																					"patching_rect" : [ 286.210564277130061, 40.000009477874755, 30.0, 30.0 ]
																				}

																			}
, 																			{
																				"box" : 																				{
																					"comment" : "",
																					"id" : "obj-181",
																					"index" : 1,
																					"maxclass" : "outlet",
																					"numinlets" : 1,
																					"numoutlets" : 0,
																					"patching_rect" : [ 49.999993277130102, 402.807015477874756, 30.0, 30.0 ]
																				}

																			}
 ],
																		"lines" : [ 																			{
																				"patchline" : 																				{
																					"destination" : [ "obj-112", 0 ],
																					"order" : 1,
																					"source" : [ "obj-100", 0 ]
																				}

																			}
, 																			{
																				"patchline" : 																				{
																					"destination" : [ "obj-72", 0 ],
																					"order" : 0,
																					"source" : [ "obj-100", 0 ]
																				}

																			}
, 																			{
																				"patchline" : 																				{
																					"destination" : [ "obj-111", 1 ],
																					"source" : [ "obj-101", 0 ]
																				}

																			}
, 																			{
																				"patchline" : 																				{
																					"destination" : [ "obj-181", 0 ],
																					"source" : [ "obj-111", 0 ]
																				}

																			}
, 																			{
																				"patchline" : 																				{
																					"destination" : [ "obj-111", 0 ],
																					"source" : [ "obj-112", 0 ]
																				}

																			}
, 																			{
																				"patchline" : 																				{
																					"destination" : [ "obj-101", 0 ],
																					"source" : [ "obj-113", 0 ]
																				}

																			}
, 																			{
																				"patchline" : 																				{
																					"destination" : [ "obj-43", 0 ],
																					"source" : [ "obj-179", 0 ]
																				}

																			}
, 																			{
																				"patchline" : 																				{
																					"destination" : [ "obj-74", 1 ],
																					"source" : [ "obj-180", 0 ]
																				}

																			}
, 																			{
																				"patchline" : 																				{
																					"destination" : [ "obj-100", 0 ],
																					"order" : 1,
																					"source" : [ "obj-43", 0 ]
																				}

																			}
, 																			{
																				"patchline" : 																				{
																					"destination" : [ "obj-74", 0 ],
																					"order" : 0,
																					"source" : [ "obj-43", 0 ]
																				}

																			}
, 																			{
																				"patchline" : 																				{
																					"destination" : [ "obj-113", 0 ],
																					"source" : [ "obj-72", 0 ]
																				}

																			}
, 																			{
																				"patchline" : 																				{
																					"destination" : [ "obj-72", 0 ],
																					"source" : [ "obj-74", 0 ]
																				}

																			}
 ]
																	}
,
																	"patching_rect" : [ 242.105261325836182, 100.0, 102.0, 49.0 ],
																	"text" : "p deviceClassName"
																}

															}
, 															{
																"box" : 																{
																	"id" : "obj-178",
																	"linecount" : 2,
																	"maxclass" : "newobj",
																	"numinlets" : 2,
																	"numoutlets" : 1,
																	"outlettype" : [ "" ],
																	"patcher" : 																	{
																		"fileversion" : 1,
																		"appversion" : 																		{
																			"major" : 9,
																			"minor" : 0,
																			"revision" : 6,
																			"architecture" : "x64",
																			"modernui" : 1
																		}
,
																		"classnamespace" : "box",
																		"rect" : [ 134.0, 181.0, 1000.0, 780.0 ],
																		"gridsize" : [ 15.0, 15.0 ],
																		"boxes" : [ 																			{
																				"box" : 																				{
																					"id" : "obj-119",
																					"maxclass" : "newobj",
																					"numinlets" : 1,
																					"numoutlets" : 1,
																					"outlettype" : [ "" ],
																					"patching_rect" : [ 129.245613098144531, 268.0, 142.0, 22.0 ],
																					"text" : "prepend set deviceName"
																				}

																			}
, 																			{
																				"box" : 																				{
																					"id" : "obj-118",
																					"maxclass" : "newobj",
																					"numinlets" : 2,
																					"numoutlets" : 1,
																					"outlettype" : [ "bang" ],
																					"patching_rect" : [ 52.0, 142.105262756347656, 57.0, 22.0 ],
																					"text" : "del 50"
																				}

																			}
, 																			{
																				"box" : 																				{
																					"id" : "obj-117",
																					"linecount" : 2,
																					"maxclass" : "message",
																					"numinlets" : 2,
																					"numoutlets" : 1,
																					"outlettype" : [ "" ],
																					"patching_rect" : [ 50.0, 314.666664600372314, 98.245613098144531, 35.0 ],
																					"text" : "set deviceName THIS"
																				}

																			}
, 																			{
																				"box" : 																				{
																					"id" : "obj-115",
																					"maxclass" : "newobj",
																					"numinlets" : 2,
																					"numoutlets" : 2,
																					"outlettype" : [ "", "" ],
																					"patching_rect" : [ 129.0, 223.0, 98.0, 22.0 ],
																					"text" : "route text"
																				}

																			}
, 																			{
																				"box" : 																				{
																					"id" : "obj-114",
																					"linecount" : 2,
																					"maxclass" : "newobj",
																					"numinlets" : 2,
																					"numoutlets" : 1,
																					"outlettype" : [ "bang" ],
																					"patching_rect" : [ 50.0, 199.122806072235107, 42.0, 35.0 ],
																					"text" : "del 100"
																				}

																			}
, 																			{
																				"box" : 																				{
																					"id" : "obj-107",
																					"maxclass" : "button",
																					"numinlets" : 1,
																					"numoutlets" : 1,
																					"outlettype" : [ "bang" ],
																					"parameter_enable" : 0,
																					"patching_rect" : [ 51.754385948181152, 100.0, 24.0, 24.0 ]
																				}

																			}
, 																			{
																				"box" : 																				{
																					"border" : 1.0,
																					"fontname" : "Arial",
																					"fontsize" : 10.0,
																					"id" : "obj-59",
																					"keymode" : 1,
																					"maxclass" : "textedit",
																					"numinlets" : 1,
																					"numoutlets" : 4,
																					"outlettype" : [ "", "int", "", "" ],
																					"parameter_enable" : 0,
																					"patching_rect" : [ 129.0, 191.0, 112.0, 16.0 ],
																					"prototypename" : "M4L.white",
																					"rounded" : 0.0,
																					"text" : "THIS"
																				}

																			}
, 																			{
																				"box" : 																				{
																					"fontname" : "Arial Bold",
																					"fontsize" : 10.0,
																					"id" : "obj-60",
																					"maxclass" : "newobj",
																					"numinlets" : 2,
																					"numoutlets" : 4,
																					"outlettype" : [ "", "", "", "" ],
																					"patching_rect" : [ 129.245613098144531, 139.22806978225708, 133.0, 20.0 ],
																					"text" : "live.property name @get 1"
																				}

																			}
, 																			{
																				"box" : 																				{
																					"comment" : "",
																					"id" : "obj-175",
																					"index" : 1,
																					"maxclass" : "inlet",
																					"numinlets" : 0,
																					"numoutlets" : 1,
																					"outlettype" : [ "" ],
																					"patching_rect" : [ 51.754357462951702, 39.999985892425514, 30.0, 30.0 ]
																				}

																			}
, 																			{
																				"box" : 																				{
																					"comment" : "",
																					"id" : "obj-176",
																					"index" : 2,
																					"maxclass" : "inlet",
																					"numinlets" : 0,
																					"numoutlets" : 1,
																					"outlettype" : [ "" ],
																					"patching_rect" : [ 243.245629462951683, 39.999985892425514, 30.0, 30.0 ]
																				}

																			}
, 																			{
																				"box" : 																				{
																					"comment" : "",
																					"id" : "obj-177",
																					"index" : 1,
																					"maxclass" : "outlet",
																					"numinlets" : 1,
																					"numoutlets" : 0,
																					"patching_rect" : [ 50.000023462951617, 394.666642892425557, 30.0, 30.0 ]
																				}

																			}
 ],
																		"lines" : [ 																			{
																				"patchline" : 																				{
																					"destination" : [ "obj-118", 0 ],
																					"source" : [ "obj-107", 0 ]
																				}

																			}
, 																			{
																				"patchline" : 																				{
																					"destination" : [ "obj-117", 0 ],
																					"source" : [ "obj-114", 0 ]
																				}

																			}
, 																			{
																				"patchline" : 																				{
																					"destination" : [ "obj-119", 0 ],
																					"source" : [ "obj-115", 0 ]
																				}

																			}
, 																			{
																				"patchline" : 																				{
																					"destination" : [ "obj-177", 0 ],
																					"source" : [ "obj-117", 0 ]
																				}

																			}
, 																			{
																				"patchline" : 																				{
																					"destination" : [ "obj-114", 0 ],
																					"order" : 1,
																					"source" : [ "obj-118", 0 ]
																				}

																			}
, 																			{
																				"patchline" : 																				{
																					"destination" : [ "obj-59", 0 ],
																					"order" : 0,
																					"source" : [ "obj-118", 0 ]
																				}

																			}
, 																			{
																				"patchline" : 																				{
																					"destination" : [ "obj-117", 1 ],
																					"source" : [ "obj-119", 0 ]
																				}

																			}
, 																			{
																				"patchline" : 																				{
																					"destination" : [ "obj-107", 0 ],
																					"source" : [ "obj-175", 0 ]
																				}

																			}
, 																			{
																				"patchline" : 																				{
																					"destination" : [ "obj-60", 1 ],
																					"source" : [ "obj-176", 0 ]
																				}

																			}
, 																			{
																				"patchline" : 																				{
																					"destination" : [ "obj-115", 0 ],
																					"source" : [ "obj-59", 0 ]
																				}

																			}
, 																			{
																				"patchline" : 																				{
																					"destination" : [ "obj-59", 0 ],
																					"source" : [ "obj-60", 0 ]
																				}

																			}
 ]
																	}
,
																	"patching_rect" : [ 135.087718486785889, 104.0, 76.0, 35.0 ],
																	"text" : "p deviceName"
																}

															}
, 															{
																"box" : 																{
																	"id" : "obj-174",
																	"linecount" : 2,
																	"maxclass" : "newobj",
																	"numinlets" : 2,
																	"numoutlets" : 1,
																	"outlettype" : [ "" ],
																	"patcher" : 																	{
																		"fileversion" : 1,
																		"appversion" : 																		{
																			"major" : 9,
																			"minor" : 0,
																			"revision" : 6,
																			"architecture" : "x64",
																			"modernui" : 1
																		}
,
																		"classnamespace" : "box",
																		"rect" : [ 134.0, 181.0, 1000.0, 780.0 ],
																		"gridsize" : [ 15.0, 15.0 ],
																		"boxes" : [ 																			{
																				"box" : 																				{
																					"id" : "obj-1",
																					"maxclass" : "newobj",
																					"numinlets" : 2,
																					"numoutlets" : 2,
																					"outlettype" : [ "", "" ],
																					"patching_rect" : [ 122.0, 79.0, 49.0, 22.0 ],
																					"text" : "route id"
																				}

																			}
, 																			{
																				"box" : 																				{
																					"id" : "obj-135",
																					"linecount" : 2,
																					"maxclass" : "newobj",
																					"numinlets" : 2,
																					"numoutlets" : 1,
																					"outlettype" : [ "bang" ],
																					"patching_rect" : [ 51.5, 145.614034652709961, 42.0, 35.0 ],
																					"text" : "del 100"
																				}

																			}
, 																			{
																				"box" : 																				{
																					"id" : "obj-106",
																					"maxclass" : "message",
																					"numinlets" : 2,
																					"numoutlets" : 1,
																					"outlettype" : [ "" ],
																					"patching_rect" : [ 50.0, 227.192981243133545, 122.807016372680664, 22.0 ],
																					"text" : "set deviceID 28"
																				}

																			}
, 																			{
																				"box" : 																				{
																					"id" : "obj-104",
																					"maxclass" : "button",
																					"numinlets" : 1,
																					"numoutlets" : 1,
																					"outlettype" : [ "bang" ],
																					"parameter_enable" : 0,
																					"patching_rect" : [ 51.5, 100.0, 24.0, 24.0 ]
																				}

																			}
, 																			{
																				"box" : 																				{
																					"id" : "obj-98",
																					"maxclass" : "newobj",
																					"numinlets" : 1,
																					"numoutlets" : 1,
																					"outlettype" : [ "" ],
																					"patching_rect" : [ 123.684209823608398, 120.175438404083252, 122.0, 22.0 ],
																					"text" : "prepend set deviceID"
																				}

																			}
, 																			{
																				"box" : 																				{
																					"comment" : "",
																					"id" : "obj-171",
																					"index" : 1,
																					"maxclass" : "inlet",
																					"numinlets" : 0,
																					"numoutlets" : 1,
																					"outlettype" : [ "" ],
																					"patching_rect" : [ 51.499993306976307, 39.999996535186767, 30.0, 30.0 ]
																				}

																			}
, 																			{
																				"box" : 																				{
																					"comment" : "",
																					"id" : "obj-172",
																					"index" : 2,
																					"maxclass" : "inlet",
																					"numinlets" : 0,
																					"numoutlets" : 1,
																					"outlettype" : [ "" ],
																					"patching_rect" : [ 123.684198306976327, 39.999996535186767, 30.0, 30.0 ]
																				}

																			}
, 																			{
																				"box" : 																				{
																					"comment" : "",
																					"id" : "obj-173",
																					"index" : 1,
																					"maxclass" : "outlet",
																					"numinlets" : 1,
																					"numoutlets" : 0,
																					"patching_rect" : [ 49.999993306976307, 307.192959535186787, 30.0, 30.0 ]
																				}

																			}
 ],
																		"lines" : [ 																			{
																				"patchline" : 																				{
																					"destination" : [ "obj-98", 0 ],
																					"source" : [ "obj-1", 0 ]
																				}

																			}
, 																			{
																				"patchline" : 																				{
																					"destination" : [ "obj-135", 0 ],
																					"source" : [ "obj-104", 0 ]
																				}

																			}
, 																			{
																				"patchline" : 																				{
																					"destination" : [ "obj-173", 0 ],
																					"source" : [ "obj-106", 0 ]
																				}

																			}
, 																			{
																				"patchline" : 																				{
																					"destination" : [ "obj-106", 0 ],
																					"source" : [ "obj-135", 0 ]
																				}

																			}
, 																			{
																				"patchline" : 																				{
																					"destination" : [ "obj-104", 0 ],
																					"source" : [ "obj-171", 0 ]
																				}

																			}
, 																			{
																				"patchline" : 																				{
																					"destination" : [ "obj-1", 0 ],
																					"source" : [ "obj-172", 0 ]
																				}

																			}
, 																			{
																				"patchline" : 																				{
																					"destination" : [ "obj-106", 1 ],
																					"source" : [ "obj-98", 0 ]
																				}

																			}
 ]
																	}
,
																	"patching_rect" : [ 50.0, 100.0, 59.0, 35.0 ],
																	"text" : "p deviceID"
																}

															}
, 															{
																"box" : 																{
																	"comment" : "",
																	"id" : "obj-183",
																	"index" : 1,
																	"maxclass" : "inlet",
																	"numinlets" : 0,
																	"numoutlets" : 1,
																	"outlettype" : [ "" ],
																	"patching_rect" : [ 136.397649907867446, 39.99999250927732, 30.0, 30.0 ]
																}

															}
, 															{
																"box" : 																{
																	"comment" : "",
																	"id" : "obj-184",
																	"index" : 2,
																	"maxclass" : "inlet",
																	"numinlets" : 0,
																	"numoutlets" : 1,
																	"outlettype" : [ "" ],
																	"patching_rect" : [ 171.397649907867446, 39.99999250927732, 30.0, 30.0 ]
																}

															}
, 															{
																"box" : 																{
																	"comment" : "",
																	"id" : "obj-185",
																	"index" : 1,
																	"maxclass" : "outlet",
																	"numinlets" : 1,
																	"numoutlets" : 0,
																	"patching_rect" : [ 136.397649907867446, 184.000022509277301, 30.0, 30.0 ]
																}

															}
 ],
														"lines" : [ 															{
																"patchline" : 																{
																	"destination" : [ "obj-185", 0 ],
																	"source" : [ "obj-174", 0 ]
																}

															}
, 															{
																"patchline" : 																{
																	"destination" : [ "obj-185", 0 ],
																	"source" : [ "obj-178", 0 ]
																}

															}
, 															{
																"patchline" : 																{
																	"destination" : [ "obj-185", 0 ],
																	"source" : [ "obj-182", 0 ]
																}

															}
, 															{
																"patchline" : 																{
																	"destination" : [ "obj-174", 0 ],
																	"order" : 2,
																	"source" : [ "obj-183", 0 ]
																}

															}
, 															{
																"patchline" : 																{
																	"destination" : [ "obj-178", 0 ],
																	"order" : 1,
																	"source" : [ "obj-183", 0 ]
																}

															}
, 															{
																"patchline" : 																{
																	"destination" : [ "obj-182", 0 ],
																	"order" : 0,
																	"source" : [ "obj-183", 0 ]
																}

															}
, 															{
																"patchline" : 																{
																	"destination" : [ "obj-174", 1 ],
																	"order" : 2,
																	"source" : [ "obj-184", 0 ]
																}

															}
, 															{
																"patchline" : 																{
																	"destination" : [ "obj-178", 1 ],
																	"order" : 1,
																	"source" : [ "obj-184", 0 ]
																}

															}
, 															{
																"patchline" : 																{
																	"destination" : [ "obj-182", 1 ],
																	"order" : 0,
																	"source" : [ "obj-184", 0 ]
																}

															}
 ]
													}
,
													"patching_rect" : [ 140.350875931701665, 100.0, 53.0, 22.0 ],
													"text" : "p device"
												}

											}
, 											{
												"box" : 												{
													"id" : "obj-170",
													"maxclass" : "newobj",
													"numinlets" : 2,
													"numoutlets" : 2,
													"outlettype" : [ "", "" ],
													"patcher" : 													{
														"fileversion" : 1,
														"appversion" : 														{
															"major" : 9,
															"minor" : 0,
															"revision" : 6,
															"architecture" : "x64",
															"modernui" : 1
														}
,
														"classnamespace" : "box",
														"rect" : [ 0.0, 0.0, 1000.0, 780.0 ],
														"gridsize" : [ 15.0, 15.0 ],
														"boxes" : [ 															{
																"box" : 																{
																	"id" : "obj-165",
																	"linecount" : 2,
																	"maxclass" : "newobj",
																	"numinlets" : 2,
																	"numoutlets" : 3,
																	"outlettype" : [ "", "", "" ],
																	"patcher" : 																	{
																		"fileversion" : 1,
																		"appversion" : 																		{
																			"major" : 9,
																			"minor" : 0,
																			"revision" : 6,
																			"architecture" : "x64",
																			"modernui" : 1
																		}
,
																		"classnamespace" : "box",
																		"rect" : [ 0.0, 0.0, 1000.0, 780.0 ],
																		"gridsize" : [ 15.0, 15.0 ],
																		"boxes" : [ 																			{
																				"box" : 																				{
																					"id" : "obj-153",
																					"linecount" : 2,
																					"maxclass" : "newobj",
																					"numinlets" : 2,
																					"numoutlets" : 2,
																					"outlettype" : [ "", "" ],
																					"patcher" : 																					{
																						"fileversion" : 1,
																						"appversion" : 																						{
																							"major" : 9,
																							"minor" : 0,
																							"revision" : 6,
																							"architecture" : "x64",
																							"modernui" : 1
																						}
,
																						"classnamespace" : "box",
																						"rect" : [ 0.0, 0.0, 1000.0, 780.0 ],
																						"gridsize" : [ 15.0, 15.0 ],
																						"boxes" : [ 																							{
																								"box" : 																								{
																									"id" : "obj-144",
																									"linecount" : 2,
																									"maxclass" : "newobj",
																									"numinlets" : 2,
																									"numoutlets" : 1,
																									"outlettype" : [ "bang" ],
																									"patching_rect" : [ 50.0, 197.368420124053955, 37.0, 20.0 ],
																									"text" : "del 50"
																								}

																							}
, 																							{
																								"box" : 																								{
																									"id" : "obj-136",
																									"maxclass" : "button",
																									"numinlets" : 1,
																									"numoutlets" : 1,
																									"outlettype" : [ "bang" ],
																									"parameter_enable" : 0,
																									"patching_rect" : [ 50.0, 146.491227626800537, 24.0, 24.0 ]
																								}

																							}
, 																							{
																								"box" : 																								{
																									"id" : "obj-134",
																									"maxclass" : "message",
																									"numinlets" : 2,
																									"numoutlets" : 1,
																									"outlettype" : [ "" ],
																									"patching_rect" : [ 50.0, 238.596489906311035, 149.122805595397949, 20.0 ],
																									"text" : "set trackID 19"
																								}

																							}
, 																							{
																								"box" : 																								{
																									"id" : "obj-132",
																									"linecount" : 2,
																									"maxclass" : "newobj",
																									"numinlets" : 2,
																									"numoutlets" : 2,
																									"outlettype" : [ "", "" ],
																									"patching_rect" : [ 91.22806978225708, 148.491227626800537, 45.0, 20.0 ],
																									"text" : "route id"
																								}

																							}
, 																							{
																								"box" : 																								{
																									"id" : "obj-129",
																									"linecount" : 2,
																									"maxclass" : "newobj",
																									"numinlets" : 1,
																									"numoutlets" : 1,
																									"outlettype" : [ "" ],
																									"patching_rect" : [ 95.614034652709961, 182.45613956451416, 102.0, 20.0 ],
																									"text" : "prepend set trackID"
																								}

																							}
, 																							{
																								"box" : 																								{
																									"fontname" : "Arial Bold",
																									"fontsize" : 10.0,
																									"id" : "obj-124",
																									"maxclass" : "newobj",
																									"numinlets" : 2,
																									"numoutlets" : 2,
																									"outlettype" : [ "", "" ],
																									"patching_rect" : [ 91.22806978225708, 100.0, 103.0, 20.0 ],
																									"text" : "substitute iterate id"
																								}

																							}
, 																							{
																								"box" : 																								{
																									"comment" : "",
																									"id" : "obj-149",
																									"index" : 1,
																									"maxclass" : "inlet",
																									"numinlets" : 0,
																									"numoutlets" : 1,
																									"outlettype" : [ "" ],
																									"patching_rect" : [ 49.999994969634997, 39.999999446990955, 30.0, 30.0 ]
																								}

																							}
, 																							{
																								"box" : 																								{
																									"comment" : "",
																									"id" : "obj-150",
																									"index" : 2,
																									"maxclass" : "inlet",
																									"numinlets" : 0,
																									"numoutlets" : 1,
																									"outlettype" : [ "" ],
																									"patching_rect" : [ 91.228082969635011, 39.999999446990955, 30.0, 30.0 ]
																								}

																							}
, 																							{
																								"box" : 																								{
																									"comment" : "",
																									"id" : "obj-151",
																									"index" : 1,
																									"maxclass" : "outlet",
																									"numinlets" : 1,
																									"numoutlets" : 0,
																									"patching_rect" : [ 49.999994969634997, 318.596465446990919, 30.0, 30.0 ]
																								}

																							}
, 																							{
																								"box" : 																								{
																									"comment" : "",
																									"id" : "obj-152",
																									"index" : 2,
																									"maxclass" : "outlet",
																									"numinlets" : 1,
																									"numoutlets" : 0,
																									"patching_rect" : [ 91.228082969635011, 318.596465446990919, 30.0, 30.0 ]
																								}

																							}
 ],
																						"lines" : [ 																							{
																								"patchline" : 																								{
																									"destination" : [ "obj-132", 0 ],
																									"order" : 1,
																									"source" : [ "obj-124", 0 ]
																								}

																							}
, 																							{
																								"patchline" : 																								{
																									"destination" : [ "obj-152", 0 ],
																									"order" : 0,
																									"source" : [ "obj-124", 0 ]
																								}

																							}
, 																							{
																								"patchline" : 																								{
																									"destination" : [ "obj-134", 1 ],
																									"source" : [ "obj-129", 0 ]
																								}

																							}
, 																							{
																								"patchline" : 																								{
																									"destination" : [ "obj-129", 0 ],
																									"source" : [ "obj-132", 0 ]
																								}

																							}
, 																							{
																								"patchline" : 																								{
																									"destination" : [ "obj-151", 0 ],
																									"source" : [ "obj-134", 0 ]
																								}

																							}
, 																							{
																								"patchline" : 																								{
																									"destination" : [ "obj-144", 0 ],
																									"source" : [ "obj-136", 0 ]
																								}

																							}
, 																							{
																								"patchline" : 																								{
																									"destination" : [ "obj-134", 0 ],
																									"source" : [ "obj-144", 0 ]
																								}

																							}
, 																							{
																								"patchline" : 																								{
																									"destination" : [ "obj-136", 0 ],
																									"source" : [ "obj-149", 0 ]
																								}

																							}
, 																							{
																								"patchline" : 																								{
																									"destination" : [ "obj-124", 0 ],
																									"source" : [ "obj-150", 0 ]
																								}

																							}
 ]
																					}
,
																					"patching_rect" : [ 50.0, 443.403099060058594, 51.0, 20.0 ],
																					"text" : "p trackID"
																				}

																			}
, 																			{
																				"box" : 																				{
																					"border" : 1.0,
																					"fontname" : "Arial",
																					"fontsize" : 10.0,
																					"id" : "obj-89",
																					"keymode" : 1,
																					"maxclass" : "textedit",
																					"numinlets" : 1,
																					"numoutlets" : 4,
																					"outlettype" : [ "", "int", "", "" ],
																					"parameter_enable" : 0,
																					"patching_rect" : [ 69.5614013671875, 474.841695308685303, 112.0, 16.0 ],
																					"prototypename" : "M4L.white",
																					"rounded" : 0.0,
																					"text" : "traaan"
																				}

																			}
, 																			{
																				"box" : 																				{
																					"fontname" : "Arial Bold",
																					"fontsize" : 10.0,
																					"id" : "obj-90",
																					"maxclass" : "newobj",
																					"numinlets" : 2,
																					"numoutlets" : 4,
																					"outlettype" : [ "", "", "", "" ],
																					"patching_rect" : [ 69.5614013671875, 508.806607246398926, 133.0, 20.0 ],
																					"text" : "live.property name @get 1"
																				}

																			}
, 																			{
																				"box" : 																				{
																					"comment" : "",
																					"id" : "obj-160",
																					"index" : 1,
																					"maxclass" : "inlet",
																					"numinlets" : 0,
																					"numoutlets" : 1,
																					"outlettype" : [ "" ],
																					"patching_rect" : [ 50.0, 39.999999569335941, 30.0, 30.0 ]
																				}

																			}
, 																			{
																				"box" : 																				{
																					"comment" : "",
																					"id" : "obj-161",
																					"index" : 2,
																					"maxclass" : "inlet",
																					"numinlets" : 0,
																					"numoutlets" : 1,
																					"outlettype" : [ "" ],
																					"patching_rect" : [ 82.0, 39.999999569335941, 30.0, 30.0 ]
																				}

																			}
, 																			{
																				"box" : 																				{
																					"comment" : "",
																					"id" : "obj-162",
																					"index" : 1,
																					"maxclass" : "outlet",
																					"numinlets" : 1,
																					"numoutlets" : 0,
																					"patching_rect" : [ 50.0, 590.806625569335893, 30.0, 30.0 ]
																				}

																			}
, 																			{
																				"box" : 																				{
																					"comment" : "",
																					"id" : "obj-163",
																					"index" : 2,
																					"maxclass" : "outlet",
																					"numinlets" : 1,
																					"numoutlets" : 0,
																					"patching_rect" : [ 85.0, 590.806625569335893, 30.0, 30.0 ]
																				}

																			}
, 																			{
																				"box" : 																				{
																					"comment" : "",
																					"id" : "obj-164",
																					"index" : 3,
																					"maxclass" : "outlet",
																					"numinlets" : 1,
																					"numoutlets" : 0,
																					"patching_rect" : [ 120.0, 590.806625569335893, 30.0, 30.0 ]
																				}

																			}
 ],
																		"lines" : [ 																			{
																				"patchline" : 																				{
																					"destination" : [ "obj-162", 0 ],
																					"source" : [ "obj-153", 0 ]
																				}

																			}
, 																			{
																				"patchline" : 																				{
																					"destination" : [ "obj-164", 0 ],
																					"order" : 1,
																					"source" : [ "obj-153", 1 ]
																				}

																			}
, 																			{
																				"patchline" : 																				{
																					"destination" : [ "obj-90", 1 ],
																					"order" : 0,
																					"source" : [ "obj-153", 1 ]
																				}

																			}
, 																			{
																				"patchline" : 																				{
																					"destination" : [ "obj-153", 0 ],
																					"source" : [ "obj-160", 0 ]
																				}

																			}
, 																			{
																				"patchline" : 																				{
																					"destination" : [ "obj-153", 1 ],
																					"source" : [ "obj-161", 0 ]
																				}

																			}
, 																			{
																				"patchline" : 																				{
																					"destination" : [ "obj-90", 0 ],
																					"source" : [ "obj-89", 0 ]
																				}

																			}
, 																			{
																				"patchline" : 																				{
																					"destination" : [ "obj-163", 0 ],
																					"order" : 0,
																					"source" : [ "obj-90", 0 ]
																				}

																			}
, 																			{
																				"patchline" : 																				{
																					"destination" : [ "obj-89", 0 ],
																					"midpoints" : [ 79.0614013671875, 186.920645713806152, 389.066880628466606, 186.920645713806152, 389.066880628466606, 102.000004494562745, 79.0614013671875, 102.000004494562745 ],
																					"order" : 1,
																					"source" : [ "obj-90", 0 ]
																				}

																			}
 ]
																	}
,
																	"patching_rect" : [ 84.210525989532471, 100.0, 51.0, 20.0 ],
																	"text" : "p trackID"
																}

															}
, 															{
																"box" : 																{
																	"id" : "obj-148",
																	"linecount" : 2,
																	"maxclass" : "newobj",
																	"numinlets" : 2,
																	"numoutlets" : 1,
																	"outlettype" : [ "" ],
																	"patcher" : 																	{
																		"fileversion" : 1,
																		"appversion" : 																		{
																			"major" : 9,
																			"minor" : 0,
																			"revision" : 6,
																			"architecture" : "x64",
																			"modernui" : 1
																		}
,
																		"classnamespace" : "box",
																		"rect" : [ 0.0, 0.0, 1000.0, 780.0 ],
																		"gridsize" : [ 15.0, 15.0 ],
																		"boxes" : [ 																			{
																				"box" : 																				{
																					"id" : "obj-143",
																					"linecount" : 2,
																					"maxclass" : "newobj",
																					"numinlets" : 1,
																					"numoutlets" : 1,
																					"outlettype" : [ "" ],
																					"patching_rect" : [ 59.649122714996338, 271.649129867553711, 119.0, 20.0 ],
																					"text" : "prepend set trackName"
																				}

																			}
, 																			{
																				"box" : 																				{
																					"id" : "obj-142",
																					"linecount" : 2,
																					"maxclass" : "newobj",
																					"numinlets" : 2,
																					"numoutlets" : 2,
																					"outlettype" : [ "", "" ],
																					"patching_rect" : [ 64.035087585449219, 217.263165473937988, 51.0, 20.0 ],
																					"text" : "route set"
																				}

																			}
, 																			{
																				"box" : 																				{
																					"id" : "obj-140",
																					"maxclass" : "message",
																					"numinlets" : 2,
																					"numoutlets" : 1,
																					"outlettype" : [ "" ],
																					"patching_rect" : [ 50.0, 331.298252105712891, 177.052632331848145, 20.0 ],
																					"text" : "set trackName traaan"
																				}

																			}
, 																			{
																				"box" : 																				{
																					"comment" : "",
																					"id" : "obj-145",
																					"index" : 1,
																					"maxclass" : "inlet",
																					"numinlets" : 0,
																					"numoutlets" : 1,
																					"outlettype" : [ "" ],
																					"patching_rect" : [ 49.999999621826177, 40.000000138671851, 30.0, 30.0 ]
																				}

																			}
, 																			{
																				"box" : 																				{
																					"comment" : "",
																					"id" : "obj-146",
																					"index" : 2,
																					"maxclass" : "inlet",
																					"numinlets" : 0,
																					"numoutlets" : 1,
																					"outlettype" : [ "" ],
																					"patching_rect" : [ 84.999999621826177, 40.000000138671851, 30.0, 30.0 ]
																				}

																			}
, 																			{
																				"box" : 																				{
																					"comment" : "",
																					"id" : "obj-147",
																					"index" : 1,
																					"maxclass" : "outlet",
																					"numinlets" : 1,
																					"numoutlets" : 0,
																					"patching_rect" : [ 49.999999621826177, 411.298248138671852, 30.0, 30.0 ]
																				}

																			}
 ],
																		"lines" : [ 																			{
																				"patchline" : 																				{
																					"destination" : [ "obj-147", 0 ],
																					"source" : [ "obj-140", 0 ]
																				}

																			}
, 																			{
																				"patchline" : 																				{
																					"destination" : [ "obj-143", 0 ],
																					"source" : [ "obj-142", 0 ]
																				}

																			}
, 																			{
																				"patchline" : 																				{
																					"destination" : [ "obj-140", 1 ],
																					"midpoints" : [ 69.149122714996338, 102.000012397766113, 217.552632331848145, 102.000012397766113 ],
																					"source" : [ "obj-143", 0 ]
																				}

																			}
, 																			{
																				"patchline" : 																				{
																					"destination" : [ "obj-140", 0 ],
																					"source" : [ "obj-145", 0 ]
																				}

																			}
, 																			{
																				"patchline" : 																				{
																					"destination" : [ "obj-142", 0 ],
																					"source" : [ "obj-146", 0 ]
																				}

																			}
 ]
																	}
,
																	"patching_rect" : [ 50.0, 148.245613574981689, 69.0, 20.0 ],
																	"text" : "p trackName"
																}

															}
, 															{
																"box" : 																{
																	"comment" : "",
																	"id" : "obj-166",
																	"index" : 1,
																	"maxclass" : "inlet",
																	"numinlets" : 0,
																	"numoutlets" : 1,
																	"outlettype" : [ "" ],
																	"patching_rect" : [ 61.105262399627691, 40.000011706085218, 30.0, 30.0 ]
																}

															}
, 															{
																"box" : 																{
																	"comment" : "",
																	"id" : "obj-167",
																	"index" : 2,
																	"maxclass" : "inlet",
																	"numinlets" : 0,
																	"numoutlets" : 1,
																	"outlettype" : [ "" ],
																	"patching_rect" : [ 116.210532399627709, 40.000011706085218, 30.0, 30.0 ]
																}

															}
, 															{
																"box" : 																{
																	"comment" : "",
																	"id" : "obj-168",
																	"index" : 1,
																	"maxclass" : "outlet",
																	"numinlets" : 1,
																	"numoutlets" : 0,
																	"patching_rect" : [ 61.105262399627691, 228.245617706085227, 30.0, 30.0 ]
																}

															}
, 															{
																"box" : 																{
																	"comment" : "",
																	"id" : "obj-169",
																	"index" : 2,
																	"maxclass" : "outlet",
																	"numinlets" : 1,
																	"numoutlets" : 0,
																	"patching_rect" : [ 96.105262399627691, 228.245617706085227, 30.0, 30.0 ]
																}

															}
 ],
														"lines" : [ 															{
																"patchline" : 																{
																	"destination" : [ "obj-168", 0 ],
																	"source" : [ "obj-148", 0 ]
																}

															}
, 															{
																"patchline" : 																{
																	"destination" : [ "obj-148", 1 ],
																	"source" : [ "obj-165", 1 ]
																}

															}
, 															{
																"patchline" : 																{
																	"destination" : [ "obj-168", 0 ],
																	"source" : [ "obj-165", 0 ]
																}

															}
, 															{
																"patchline" : 																{
																	"destination" : [ "obj-169", 0 ],
																	"source" : [ "obj-165", 2 ]
																}

															}
, 															{
																"patchline" : 																{
																	"destination" : [ "obj-148", 0 ],
																	"order" : 1,
																	"source" : [ "obj-166", 0 ]
																}

															}
, 															{
																"patchline" : 																{
																	"destination" : [ "obj-165", 0 ],
																	"order" : 0,
																	"source" : [ "obj-166", 0 ]
																}

															}
, 															{
																"patchline" : 																{
																	"destination" : [ "obj-165", 1 ],
																	"source" : [ "obj-167", 0 ]
																}

															}
 ]
													}
,
													"patching_rect" : [ 50.0, 100.0, 45.0, 22.0 ],
													"text" : "p track"
												}

											}
, 											{
												"box" : 												{
													"comment" : "",
													"id" : "obj-187",
													"index" : 2,
													"maxclass" : "inlet",
													"numinlets" : 0,
													"numoutlets" : 1,
													"outlettype" : [ "" ],
													"patching_rect" : [ 107.000007000000011, 40.000012000000027, 30.0, 30.0 ]
												}

											}
, 											{
												"box" : 												{
													"comment" : "",
													"id" : "obj-188",
													"index" : 1,
													"maxclass" : "inlet",
													"numinlets" : 0,
													"numoutlets" : 1,
													"outlettype" : [ "" ],
													"patching_rect" : [ 72.000007000000011, 40.000012000000027, 30.0, 30.0 ]
												}

											}
, 											{
												"box" : 												{
													"comment" : "",
													"id" : "obj-189",
													"index" : 3,
													"maxclass" : "inlet",
													"numinlets" : 0,
													"numoutlets" : 1,
													"outlettype" : [ "" ],
													"patching_rect" : [ 170.350882999999982, 40.000012000000027, 30.0, 30.0 ]
												}

											}
, 											{
												"box" : 												{
													"comment" : "",
													"id" : "obj-190",
													"index" : 2,
													"maxclass" : "outlet",
													"numinlets" : 1,
													"numoutlets" : 0,
													"patching_rect" : [ 107.000007000000011, 180.00001199999997, 30.0, 30.0 ]
												}

											}
, 											{
												"box" : 												{
													"comment" : "",
													"id" : "obj-191",
													"index" : 1,
													"maxclass" : "outlet",
													"numinlets" : 1,
													"numoutlets" : 0,
													"patching_rect" : [ 72.000007000000011, 180.00001199999997, 30.0, 30.0 ]
												}

											}
 ],
										"lines" : [ 											{
												"patchline" : 												{
													"destination" : [ "obj-190", 0 ],
													"source" : [ "obj-170", 0 ]
												}

											}
, 											{
												"patchline" : 												{
													"destination" : [ "obj-191", 0 ],
													"source" : [ "obj-170", 1 ]
												}

											}
, 											{
												"patchline" : 												{
													"destination" : [ "obj-190", 0 ],
													"source" : [ "obj-186", 0 ]
												}

											}
, 											{
												"patchline" : 												{
													"destination" : [ "obj-170", 0 ],
													"order" : 1,
													"source" : [ "obj-187", 0 ]
												}

											}
, 											{
												"patchline" : 												{
													"destination" : [ "obj-186", 0 ],
													"order" : 0,
													"source" : [ "obj-187", 0 ]
												}

											}
, 											{
												"patchline" : 												{
													"destination" : [ "obj-170", 1 ],
													"source" : [ "obj-188", 0 ]
												}

											}
, 											{
												"patchline" : 												{
													"destination" : [ "obj-186", 1 ],
													"source" : [ "obj-189", 0 ]
												}

											}
 ]
									}
,
									"patching_rect" : [ 50.0, 209.649121761322021, 40.0, 20.0 ],
									"text" : "p data"
								}

							}
, 							{
								"box" : 								{
									"id" : "obj-138",
									"linecount" : 2,
									"maxclass" : "message",
									"numinlets" : 2,
									"numoutlets" : 1,
									"outlettype" : [ "" ],
									"patching_rect" : [ 105.263157367706299, 209.649121761322021, 32.0, 20.0 ],
									"text" : "clear"
								}

							}
, 							{
								"box" : 								{
									"fontname" : "Arial Bold",
									"fontsize" : 10.0,
									"id" : "obj-7",
									"maxclass" : "newobj",
									"numinlets" : 2,
									"numoutlets" : 2,
									"outlettype" : [ "", "" ],
									"patching_rect" : [ 50.052631378173828, 100.0, 103.0, 20.0 ],
									"text" : "substitute iterate id"
								}

							}
, 							{
								"box" : 								{
									"comment" : "",
									"id" : "obj-195",
									"index" : 1,
									"maxclass" : "inlet",
									"numinlets" : 0,
									"numoutlets" : 1,
									"outlettype" : [ "" ],
									"patching_rect" : [ 49.999999191833496, 40.000006886932368, 30.0, 30.0 ]
								}

							}
, 							{
								"box" : 								{
									"comment" : "",
									"id" : "obj-196",
									"index" : 2,
									"maxclass" : "inlet",
									"numinlets" : 0,
									"numoutlets" : 1,
									"outlettype" : [ "" ],
									"patching_rect" : [ 84.999999191833496, 40.000006886932368, 30.0, 30.0 ]
								}

							}
, 							{
								"box" : 								{
									"comment" : "",
									"id" : "obj-197",
									"index" : 3,
									"maxclass" : "inlet",
									"numinlets" : 0,
									"numoutlets" : 1,
									"outlettype" : [ "" ],
									"patching_rect" : [ 119.999999191833496, 40.000006886932368, 30.0, 30.0 ]
								}

							}
, 							{
								"box" : 								{
									"comment" : "",
									"id" : "obj-198",
									"index" : 4,
									"maxclass" : "inlet",
									"numinlets" : 0,
									"numoutlets" : 1,
									"outlettype" : [ "" ],
									"patching_rect" : [ 154.999999191833496, 40.000006886932368, 30.0, 30.0 ]
								}

							}
, 							{
								"box" : 								{
									"comment" : "",
									"id" : "obj-199",
									"index" : 1,
									"maxclass" : "outlet",
									"numinlets" : 1,
									"numoutlets" : 0,
									"patching_rect" : [ 49.999999191833496, 289.64911588693235, 30.0, 30.0 ]
								}

							}
, 							{
								"box" : 								{
									"comment" : "",
									"id" : "obj-200",
									"index" : 2,
									"maxclass" : "outlet",
									"numinlets" : 1,
									"numoutlets" : 0,
									"patching_rect" : [ 84.999999191833496, 289.64911588693235, 30.0, 30.0 ]
								}

							}
, 							{
								"box" : 								{
									"comment" : "",
									"id" : "obj-201",
									"index" : 3,
									"maxclass" : "outlet",
									"numinlets" : 1,
									"numoutlets" : 0,
									"patching_rect" : [ 119.999999191833496, 289.64911588693235, 30.0, 30.0 ]
								}

							}
 ],
						"lines" : [ 							{
								"patchline" : 								{
									"destination" : [ "obj-201", 0 ],
									"source" : [ "obj-138", 0 ]
								}

							}
, 							{
								"patchline" : 								{
									"destination" : [ "obj-199", 0 ],
									"source" : [ "obj-192", 0 ]
								}

							}
, 							{
								"patchline" : 								{
									"destination" : [ "obj-201", 0 ],
									"source" : [ "obj-192", 1 ]
								}

							}
, 							{
								"patchline" : 								{
									"destination" : [ "obj-138", 0 ],
									"source" : [ "obj-194", 0 ]
								}

							}
, 							{
								"patchline" : 								{
									"destination" : [ "obj-192", 0 ],
									"source" : [ "obj-195", 0 ]
								}

							}
, 							{
								"patchline" : 								{
									"destination" : [ "obj-7", 0 ],
									"source" : [ "obj-196", 0 ]
								}

							}
, 							{
								"patchline" : 								{
									"destination" : [ "obj-192", 1 ],
									"source" : [ "obj-197", 0 ]
								}

							}
, 							{
								"patchline" : 								{
									"destination" : [ "obj-138", 0 ],
									"source" : [ "obj-198", 0 ]
								}

							}
, 							{
								"patchline" : 								{
									"destination" : [ "obj-192", 2 ],
									"midpoints" : [ 59.552631378173828, 159.122809886932373, 80.5, 159.122809886932373 ],
									"order" : 1,
									"source" : [ "obj-7", 0 ]
								}

							}
, 							{
								"patchline" : 								{
									"destination" : [ "obj-200", 0 ],
									"order" : 0,
									"source" : [ "obj-7", 0 ]
								}

							}
 ]
					}
,
					"patching_rect" : [ 119.298244476318359, 105.499999046325684, 77.0, 20.0 ],
					"text" : "p allDataLogic"
				}

			}
, 			{
				"box" : 				{
					"id" : "obj-193",
					"maxclass" : "live.text",
					"mode" : 0,
					"numinlets" : 1,
					"numoutlets" : 2,
					"outlettype" : [ "", "" ],
					"parameter_enable" : 1,
					"patching_rect" : [ 278.947365760803223, 58.877192497253418, 44.0, 15.0 ],
					"presentation" : 1,
					"presentation_rect" : [ 61.403508186340332, 32.456140041351318, 44.0, 15.0 ],
					"saved_attribute_attributes" : 					{
						"valueof" : 						{
							"parameter_enum" : [ "val1", "val2" ],
							"parameter_longname" : "live.text[1]",
							"parameter_mmax" : 1,
							"parameter_modmode" : 0,
							"parameter_shortname" : "live.text[1]",
							"parameter_type" : 2
						}

					}
,
					"text" : "CLEAR",
					"varname" : "live.text[1]"
				}

			}
, 			{
				"box" : 				{
					"color" : [ 0.239216, 0.643137, 0.709804, 1.0 ],
					"fontname" : "Arial Bold",
					"fontsize" : 10.0,
					"id" : "obj-123",
					"maxclass" : "newobj",
					"numinlets" : 1,
					"numoutlets" : 1,
					"outlettype" : [ "" ],
					"patcher" : 					{
						"fileversion" : 1,
						"appversion" : 						{
							"major" : 9,
							"minor" : 0,
							"revision" : 6,
							"architecture" : "x64",
							"modernui" : 1
						}
,
						"classnamespace" : "box",
						"rect" : [ 25.0, 69.0, 356.0, 218.0 ],
						"default_fontsize" : 10.0,
						"default_fontname" : "Arial Bold",
						"gridsize" : [ 8.0, 8.0 ],
						"boxes" : [ 							{
								"box" : 								{
									"fontname" : "Arial Bold",
									"fontsize" : 10.0,
									"id" : "obj-3",
									"maxclass" : "comment",
									"numinlets" : 1,
									"numoutlets" : 0,
									"patching_rect" : [ 64.0, 160.0, 61.0, 18.0 ],
									"text" : "Restore ID"
								}

							}
, 							{
								"box" : 								{
									"fontname" : "Arial Bold",
									"fontsize" : 10.0,
									"id" : "obj-2",
									"maxclass" : "comment",
									"numinlets" : 1,
									"numoutlets" : 0,
									"patching_rect" : [ 144.0, 64.0, 49.0, 18.0 ],
									"text" : "Store ID"
								}

							}
, 							{
								"box" : 								{
									"fontname" : "Arial Bold",
									"fontsize" : 10.0,
									"id" : "obj-28",
									"maxclass" : "newobj",
									"numinlets" : 2,
									"numoutlets" : 1,
									"outlettype" : [ "" ],
									"patching_rect" : [ 80.0, 96.0, 58.5, 18.0 ],
									"text" : "gate"
								}

							}
, 							{
								"box" : 								{
									"fontname" : "Arial Bold",
									"fontsize" : 10.0,
									"id" : "obj-27",
									"maxclass" : "newobj",
									"numinlets" : 1,
									"numoutlets" : 2,
									"outlettype" : [ "int", "bang" ],
									"patching_rect" : [ 80.0, 40.0, 32.5, 18.0 ],
									"text" : "t 1 b"
								}

							}
, 							{
								"box" : 								{
									"fontname" : "Arial Bold",
									"fontsize" : 10.0,
									"id" : "obj-26",
									"maxclass" : "newobj",
									"numinlets" : 1,
									"numoutlets" : 3,
									"outlettype" : [ "bang", "int", "int" ],
									"patching_rect" : [ 80.0, 16.0, 79.0, 18.0 ],
									"text" : "live.thisdevice"
								}

							}
, 							{
								"box" : 								{
									"fontname" : "Arial Bold",
									"fontsize" : 10.0,
									"id" : "obj-45",
									"linecount" : 6,
									"maxclass" : "comment",
									"numinlets" : 1,
									"numoutlets" : 0,
									"patching_rect" : [ 160.0, 120.0, 165.0, 74.0 ],
									"text" : "< The blue live.object object has its \"Save Mapping in Live Set\" attribute enabled, which means that it will retain the ID of the parameter which is selected when you save the Live set."
								}

							}
, 							{
								"box" : 								{
									"fontname" : "Arial",
									"fontsize" : 10.0,
									"id" : "obj-81",
									"linecount" : 2,
									"maxclass" : "comment",
									"numinlets" : 1,
									"numoutlets" : 0,
									"patching_rect" : [ 160.0, 16.0, 88.0, 29.0 ],
									"text" : "< Bang when the device is loaded"
								}

							}
, 							{
								"box" : 								{
									"fontname" : "Arial",
									"fontsize" : 10.0,
									"id" : "obj-82",
									"maxclass" : "comment",
									"numinlets" : 1,
									"numoutlets" : 0,
									"patching_rect" : [ 160.0, 96.0, 163.0, 18.0 ],
									"text" : "< Store ID (but not when restoring)"
								}

							}
, 							{
								"box" : 								{
									"fontname" : "Arial Bold",
									"fontsize" : 10.0,
									"id" : "obj-91",
									"maxclass" : "message",
									"numinlets" : 2,
									"numoutlets" : 1,
									"outlettype" : [ "" ],
									"patching_rect" : [ 40.0, 96.0, 34.0, 16.0 ],
									"text" : "getid"
								}

							}
, 							{
								"box" : 								{
									"color" : [ 0.239216, 0.643137, 0.709804, 1.0 ],
									"fontname" : "Arial Bold",
									"fontsize" : 10.0,
									"id" : "obj-93",
									"maxclass" : "newobj",
									"numinlets" : 2,
									"numoutlets" : 1,
									"outlettype" : [ "" ],
									"patching_rect" : [ 40.0, 120.0, 59.0, 18.0 ],
									"saved_object_attributes" : 									{
										"_persistence" : 1
									}
,
									"text" : "live.object"
								}

							}
, 							{
								"box" : 								{
									"comment" : "",
									"id" : "obj-18",
									"index" : 1,
									"maxclass" : "inlet",
									"numinlets" : 0,
									"numoutlets" : 1,
									"outlettype" : [ "" ],
									"patching_rect" : [ 120.0, 64.0, 18.0, 18.0 ]
								}

							}
, 							{
								"box" : 								{
									"comment" : "",
									"id" : "obj-34",
									"index" : 1,
									"maxclass" : "outlet",
									"numinlets" : 1,
									"numoutlets" : 0,
									"patching_rect" : [ 40.0, 160.0, 18.0, 18.0 ]
								}

							}
 ],
						"lines" : [ 							{
								"patchline" : 								{
									"destination" : [ "obj-28", 1 ],
									"source" : [ "obj-18", 0 ]
								}

							}
, 							{
								"patchline" : 								{
									"destination" : [ "obj-27", 0 ],
									"source" : [ "obj-26", 0 ]
								}

							}
, 							{
								"patchline" : 								{
									"destination" : [ "obj-28", 0 ],
									"source" : [ "obj-27", 0 ]
								}

							}
, 							{
								"patchline" : 								{
									"destination" : [ "obj-91", 0 ],
									"source" : [ "obj-27", 1 ]
								}

							}
, 							{
								"patchline" : 								{
									"destination" : [ "obj-93", 1 ],
									"source" : [ "obj-28", 0 ]
								}

							}
, 							{
								"patchline" : 								{
									"destination" : [ "obj-93", 0 ],
									"source" : [ "obj-91", 0 ]
								}

							}
, 							{
								"patchline" : 								{
									"destination" : [ "obj-34", 0 ],
									"source" : [ "obj-93", 0 ]
								}

							}
 ]
					}
,
					"patching_rect" : [ 190.350875377655029, 17.543859481811523, 85.0, 20.0 ],
					"saved_object_attributes" : 					{
						"fontname" : "Arial Bold",
						"fontsize" : 10.0
					}
,
					"text" : "patcher StoreID"
				}

			}
, 			{
				"box" : 				{
					"args" : [ "track" ],
					"bgmode" : 0,
					"border" : 0,
					"clickthrough" : 0,
					"enablehscroll" : 0,
					"enablevscroll" : 0,
					"id" : "obj-127",
					"lockeddragscroll" : 0,
					"lockedsize" : 0,
					"maxclass" : "bpatcher",
					"name" : "M4L.Chooser.maxpat",
					"numinlets" : 2,
					"numoutlets" : 2,
					"offset" : [ -9.0, -9.0 ],
					"outlettype" : [ "", "" ],
					"patching_rect" : [ 119.298244476318359, 50.877192497253418, 87.0, 31.0 ],
					"presentation" : 1,
					"presentation_rect" : [ 13.157894611358643, 50.877192497253418, 87.0, 31.0 ],
					"viewvisibility" : 1
				}

			}
, 			{
				"box" : 				{
					"id" : "obj-102",
					"maxclass" : "live.text",
					"mode" : 0,
					"numinlets" : 1,
					"numoutlets" : 2,
					"outlettype" : [ "", "" ],
					"parameter_enable" : 1,
					"patching_rect" : [ 219.298243522644043, 58.877192497253418, 44.0, 15.0 ],
					"presentation" : 1,
					"presentation_rect" : [ 13.157894611358643, 125.438595294952393, 44.0, 15.0 ],
					"saved_attribute_attributes" : 					{
						"valueof" : 						{
							"parameter_enum" : [ "val1", "val2" ],
							"parameter_longname" : "live.text",
							"parameter_mmax" : 1,
							"parameter_modmode" : 0,
							"parameter_shortname" : "live.text",
							"parameter_type" : 2
						}

					}
,
					"text" : "SAVE",
					"varname" : "live.text"
				}

			}
, 			{
				"box" : 				{
					"id" : "obj-97",
					"maxclass" : "newobj",
					"numinlets" : 2,
					"numoutlets" : 5,
					"outlettype" : [ "dictionary", "", "", "", "" ],
					"patching_rect" : [ 177.192980766296387, 142.342103958129883, 61.0, 20.0 ],
					"saved_object_attributes" : 					{
						"embed" : 0,
						"legacy" : 0,
						"parameter_enable" : 0,
						"parameter_mappable" : 0
					}
,
					"text" : "dict device"
				}

			}
, 			{
				"box" : 				{
					"fontname" : "Arial Bold Italic",
					"fontsize" : 10.0,
					"id" : "obj-15",
					"maxclass" : "comment",
					"numinlets" : 1,
					"numoutlets" : 0,
					"patching_rect" : [ 339.473680973052979, 1014.035078048706055, 17.0, 18.0 ],
					"text" : "R",
					"textcolor" : [ 0.3, 0.34, 0.4, 1.0 ]
				}

			}
, 			{
				"box" : 				{
					"fontname" : "Arial Bold Italic",
					"fontsize" : 10.0,
					"id" : "obj-20",
					"maxclass" : "comment",
					"numinlets" : 1,
					"numoutlets" : 0,
					"patching_rect" : [ 283.333330631256104, 1013.157885074615479, 17.0, 18.0 ],
					"text" : "L",
					"textcolor" : [ 0.3, 0.34, 0.4, 1.0 ]
				}

			}
, 			{
				"box" : 				{
					"fontname" : "Arial Bold Italic",
					"fontsize" : 11.0,
					"id" : "obj-28",
					"maxclass" : "comment",
					"numinlets" : 1,
					"numoutlets" : 0,
					"patching_rect" : [ 281.578944683074951, 1049.122797012329102, 81.0, 19.0 ],
					"text" : "Audio to Live",
					"textcolor" : [ 0.3, 0.34, 0.4, 1.0 ]
				}

			}
, 			{
				"box" : 				{
					"fontname" : "Arial Bold Italic",
					"fontsize" : 11.0,
					"id" : "obj-3",
					"maxclass" : "comment",
					"numinlets" : 1,
					"numoutlets" : 0,
					"patching_rect" : [ 275.438593864440918, 977.192973136901855, 96.0, 19.0 ],
					"text" : "Audio from Live",
					"textcolor" : [ 0.3, 0.34, 0.4, 1.0 ]
				}

			}
, 			{
				"box" : 				{
					"fontname" : "Arial Bold",
					"fontsize" : 10.0,
					"id" : "obj-4",
					"maxclass" : "newobj",
					"numinlets" : 2,
					"numoutlets" : 2,
					"outlettype" : [ "signal", "signal" ],
					"patching_rect" : [ 293.859646320343018, 1029.824551582336426, 53.0, 20.0 ],
					"text" : "plugout~"
				}

			}
, 			{
				"box" : 				{
					"fontname" : "Arial Bold",
					"fontsize" : 10.0,
					"id" : "obj-5",
					"maxclass" : "newobj",
					"numinlets" : 2,
					"numoutlets" : 2,
					"outlettype" : [ "signal", "signal" ],
					"patching_rect" : [ 293.859646320343018, 998.245604515075684, 53.0, 20.0 ],
					"text" : "plugin~"
				}

			}
, 			{
				"box" : 				{
					"color" : [ 0.239216, 0.643137, 0.709804, 1.0 ],
					"fontname" : "Arial Bold",
					"fontsize" : 10.0,
					"id" : "obj-36",
					"maxclass" : "newobj",
					"numinlets" : 1,
					"numoutlets" : 1,
					"outlettype" : [ "" ],
					"patcher" : 					{
						"fileversion" : 1,
						"appversion" : 						{
							"major" : 9,
							"minor" : 0,
							"revision" : 6,
							"architecture" : "x64",
							"modernui" : 1
						}
,
						"classnamespace" : "box",
						"rect" : [ 25.0, 69.0, 356.0, 218.0 ],
						"default_fontsize" : 10.0,
						"default_fontname" : "Arial Bold",
						"gridsize" : [ 8.0, 8.0 ],
						"boxes" : [ 							{
								"box" : 								{
									"fontname" : "Arial Bold",
									"fontsize" : 10.0,
									"id" : "obj-3",
									"maxclass" : "comment",
									"numinlets" : 1,
									"numoutlets" : 0,
									"patching_rect" : [ 64.0, 160.0, 61.0, 18.0 ],
									"text" : "Restore ID"
								}

							}
, 							{
								"box" : 								{
									"fontname" : "Arial Bold",
									"fontsize" : 10.0,
									"id" : "obj-2",
									"maxclass" : "comment",
									"numinlets" : 1,
									"numoutlets" : 0,
									"patching_rect" : [ 144.0, 64.0, 49.0, 18.0 ],
									"text" : "Store ID"
								}

							}
, 							{
								"box" : 								{
									"fontname" : "Arial Bold",
									"fontsize" : 10.0,
									"id" : "obj-28",
									"maxclass" : "newobj",
									"numinlets" : 2,
									"numoutlets" : 1,
									"outlettype" : [ "" ],
									"patching_rect" : [ 80.0, 96.0, 58.5, 18.0 ],
									"text" : "gate"
								}

							}
, 							{
								"box" : 								{
									"fontname" : "Arial Bold",
									"fontsize" : 10.0,
									"id" : "obj-27",
									"maxclass" : "newobj",
									"numinlets" : 1,
									"numoutlets" : 2,
									"outlettype" : [ "int", "bang" ],
									"patching_rect" : [ 80.0, 40.0, 32.5, 18.0 ],
									"text" : "t 1 b"
								}

							}
, 							{
								"box" : 								{
									"fontname" : "Arial Bold",
									"fontsize" : 10.0,
									"id" : "obj-26",
									"maxclass" : "newobj",
									"numinlets" : 1,
									"numoutlets" : 3,
									"outlettype" : [ "bang", "int", "int" ],
									"patching_rect" : [ 80.0, 16.0, 79.0, 18.0 ],
									"text" : "live.thisdevice"
								}

							}
, 							{
								"box" : 								{
									"fontname" : "Arial Bold",
									"fontsize" : 10.0,
									"id" : "obj-45",
									"linecount" : 6,
									"maxclass" : "comment",
									"numinlets" : 1,
									"numoutlets" : 0,
									"patching_rect" : [ 160.0, 120.0, 165.0, 74.0 ],
									"text" : "< The blue live.object object has its \"Save Mapping in Live Set\" attribute enabled, which means that it will retain the ID of the parameter which is selected when you save the Live set."
								}

							}
, 							{
								"box" : 								{
									"fontname" : "Arial",
									"fontsize" : 10.0,
									"id" : "obj-81",
									"linecount" : 2,
									"maxclass" : "comment",
									"numinlets" : 1,
									"numoutlets" : 0,
									"patching_rect" : [ 160.0, 16.0, 88.0, 29.0 ],
									"text" : "< Bang when the device is loaded"
								}

							}
, 							{
								"box" : 								{
									"fontname" : "Arial",
									"fontsize" : 10.0,
									"id" : "obj-82",
									"maxclass" : "comment",
									"numinlets" : 1,
									"numoutlets" : 0,
									"patching_rect" : [ 160.0, 96.0, 163.0, 18.0 ],
									"text" : "< Store ID (but not when restoring)"
								}

							}
, 							{
								"box" : 								{
									"fontname" : "Arial Bold",
									"fontsize" : 10.0,
									"id" : "obj-91",
									"maxclass" : "message",
									"numinlets" : 2,
									"numoutlets" : 1,
									"outlettype" : [ "" ],
									"patching_rect" : [ 40.0, 96.0, 34.0, 16.0 ],
									"text" : "getid"
								}

							}
, 							{
								"box" : 								{
									"color" : [ 0.239216, 0.643137, 0.709804, 1.0 ],
									"fontname" : "Arial Bold",
									"fontsize" : 10.0,
									"id" : "obj-93",
									"maxclass" : "newobj",
									"numinlets" : 2,
									"numoutlets" : 1,
									"outlettype" : [ "" ],
									"patching_rect" : [ 40.0, 120.0, 59.0, 18.0 ],
									"saved_object_attributes" : 									{
										"_persistence" : 1
									}
,
									"text" : "live.object"
								}

							}
, 							{
								"box" : 								{
									"comment" : "",
									"id" : "obj-18",
									"index" : 1,
									"maxclass" : "inlet",
									"numinlets" : 0,
									"numoutlets" : 1,
									"outlettype" : [ "" ],
									"patching_rect" : [ 120.0, 64.0, 18.0, 18.0 ]
								}

							}
, 							{
								"box" : 								{
									"comment" : "",
									"id" : "obj-34",
									"index" : 1,
									"maxclass" : "outlet",
									"numinlets" : 1,
									"numoutlets" : 0,
									"patching_rect" : [ 40.0, 160.0, 18.0, 18.0 ]
								}

							}
 ],
						"lines" : [ 							{
								"patchline" : 								{
									"destination" : [ "obj-28", 1 ],
									"source" : [ "obj-18", 0 ]
								}

							}
, 							{
								"patchline" : 								{
									"destination" : [ "obj-27", 0 ],
									"source" : [ "obj-26", 0 ]
								}

							}
, 							{
								"patchline" : 								{
									"destination" : [ "obj-28", 0 ],
									"source" : [ "obj-27", 0 ]
								}

							}
, 							{
								"patchline" : 								{
									"destination" : [ "obj-91", 0 ],
									"source" : [ "obj-27", 1 ]
								}

							}
, 							{
								"patchline" : 								{
									"destination" : [ "obj-93", 1 ],
									"source" : [ "obj-28", 0 ]
								}

							}
, 							{
								"patchline" : 								{
									"destination" : [ "obj-93", 0 ],
									"source" : [ "obj-91", 0 ]
								}

							}
, 							{
								"patchline" : 								{
									"destination" : [ "obj-34", 0 ],
									"source" : [ "obj-93", 0 ]
								}

							}
 ]
					}
,
					"patching_rect" : [ 92.561403274536133, 17.543859481811523, 85.0, 20.0 ],
					"saved_object_attributes" : 					{
						"fontname" : "Arial Bold",
						"fontsize" : 10.0
					}
,
					"text" : "patcher StoreID"
				}

			}
, 			{
				"box" : 				{
					"args" : [ "device", "@mixer", 0 ],
					"bgmode" : 0,
					"border" : 0,
					"clickthrough" : 0,
					"enablehscroll" : 0,
					"enablevscroll" : 0,
					"id" : "obj-6",
					"lockeddragscroll" : 0,
					"lockedsize" : 0,
					"maxclass" : "bpatcher",
					"name" : "M4L.Chooser.maxpat",
					"numinlets" : 2,
					"numoutlets" : 2,
					"offset" : [ -9.0, -9.0 ],
					"outlettype" : [ "", "" ],
					"patching_rect" : [ 24.561403274536133, 99.999999046325684, 87.0, 31.0 ],
					"presentation" : 1,
					"presentation_rect" : [ 13.157894611358643, 92.982455253601074, 87.0, 31.0 ],
					"viewvisibility" : 1
				}

			}
, 			{
				"box" : 				{
					"args" : [ "track" ],
					"bgmode" : 0,
					"border" : 0,
					"clickthrough" : 0,
					"enablehscroll" : 0,
					"enablevscroll" : 0,
					"id" : "obj-17",
					"lockeddragscroll" : 0,
					"lockedsize" : 0,
					"maxclass" : "bpatcher",
					"name" : "M4L.Chooser.maxpat",
					"numinlets" : 2,
					"numoutlets" : 2,
					"offset" : [ -9.0, -9.0 ],
					"outlettype" : [ "", "" ],
					"patching_rect" : [ 24.561403274536133, 50.877192497253418, 87.0, 31.0 ],
					"viewvisibility" : 1
				}

			}
, 			{
				"box" : 				{
					"id" : "obj-11",
					"maxclass" : "live.toolbar",
					"numinlets" : 0,
					"numoutlets" : 0,
					"patching_rect" : [ 0.0, 891.0, 265.0, 50.0 ],
					"presentation" : 1,
					"presentation_rect" : [ 0.0, 891.0, 265.0, 50.0 ]
				}

			}
 ],
		"lines" : [ 			{
				"patchline" : 				{
					"destination" : [ "obj-202", 2 ],
					"source" : [ "obj-102", 0 ]
				}

			}
, 			{
				"patchline" : 				{
					"destination" : [ "obj-127", 1 ],
					"source" : [ "obj-123", 0 ]
				}

			}
, 			{
				"patchline" : 				{
					"destination" : [ "obj-202", 0 ],
					"order" : 0,
					"source" : [ "obj-127", 0 ]
				}

			}
, 			{
				"patchline" : 				{
					"destination" : [ "obj-6", 1 ],
					"midpoints" : [ 196.798244476318359, 92.088543105870485, 102.061403274536133, 92.088543105870485 ],
					"source" : [ "obj-127", 1 ]
				}

			}
, 			{
				"patchline" : 				{
					"destination" : [ "obj-6", 0 ],
					"midpoints" : [ 128.798244476318359, 89.398713087663054, 34.061403274536133, 89.398713087663054 ],
					"order" : 1,
					"source" : [ "obj-127", 0 ]
				}

			}
, 			{
				"patchline" : 				{
					"destination" : [ "obj-6", 1 ],
					"source" : [ "obj-17", 1 ]
				}

			}
, 			{
				"patchline" : 				{
					"destination" : [ "obj-6", 0 ],
					"source" : [ "obj-17", 0 ]
				}

			}
, 			{
				"patchline" : 				{
					"destination" : [ "obj-202", 3 ],
					"source" : [ "obj-193", 0 ]
				}

			}
, 			{
				"patchline" : 				{
					"destination" : [ "obj-123", 0 ],
					"source" : [ "obj-202", 0 ]
				}

			}
, 			{
				"patchline" : 				{
					"destination" : [ "obj-36", 0 ],
					"source" : [ "obj-202", 1 ]
				}

			}
, 			{
				"patchline" : 				{
					"destination" : [ "obj-97", 0 ],
					"source" : [ "obj-202", 2 ]
				}

			}
, 			{
				"patchline" : 				{
					"destination" : [ "obj-17", 1 ],
					"source" : [ "obj-36", 0 ]
				}

			}
, 			{
				"patchline" : 				{
					"destination" : [ "obj-4", 1 ],
					"source" : [ "obj-5", 1 ]
				}

			}
, 			{
				"patchline" : 				{
					"destination" : [ "obj-4", 0 ],
					"source" : [ "obj-5", 0 ]
				}

			}
, 			{
				"patchline" : 				{
					"destination" : [ "obj-202", 1 ],
					"source" : [ "obj-6", 0 ]
				}

			}
 ],
		"parameters" : 		{
			"obj-102" : [ "live.text", "live.text", 0 ],
			"obj-127::obj-25" : [ "ListItems[2]", "ListItems", 0 ],
			"obj-17::obj-25" : [ "ListItems", "ListItems", 0 ],
			"obj-193" : [ "live.text[1]", "live.text[1]", 0 ],
			"obj-6::obj-25" : [ "ListItems[1]", "ListItems", 0 ],
			"parameterbanks" : 			{
				"0" : 				{
					"index" : 0,
					"name" : "",
					"parameters" : [ "-", "-", "-", "-", "-", "-", "-", "-" ]
				}

			}
,
			"parameter_overrides" : 			{
				"obj-127::obj-25" : 				{
					"parameter_longname" : "ListItems[2]"
				}
,
				"obj-6::obj-25" : 				{
					"parameter_longname" : "ListItems[1]"
				}

			}
,
			"inherited_shortname" : 1
		}
,
		"dependency_cache" : [ 			{
				"name" : "M4L.Chooser.maxpat",
				"bootpath" : "~/Documents/Max 9/Max for Live Devices/rackExtrac Project/patchers",
				"patcherrelativepath" : "../../../../Users/justchris/Documents/Max 9/Max for Live Devices/rackExtrac Project/patchers",
				"type" : "JSON",
				"implicit" : 1
			}
, 			{
				"name" : "M4L.chooser.js",
				"bootpath" : "~/Documents/Max 9/Max for Live Devices/rackExtrac Project/code",
				"patcherrelativepath" : "../../../../Users/justchris/Documents/Max 9/Max for Live Devices/rackExtrac Project/code",
				"type" : "TEXT",
				"implicit" : 1
			}
, 			{
				"name" : "live.property.maxpat",
				"bootpath" : "C74:/patchers/m4l/LiveAPI resources/tools",
				"type" : "JSON",
				"implicit" : 1
			}
 ],
		"autosave" : 0
	}

}
